HIERARCHY
ROOT Hips
{
  OFFSET 0.000000 0.000000 0.000000
  CHANNELS 6 Xposition Yposition Zposition Xrotation Yrotation Zrotation
  JOINT Spine
  {
    OFFSET -2.721785 23.846754 2.011942
    CHANNELS 3 Xrotation Yrotation Zrotation
    JOINT Chest
    {
      OFFSET -2.721785 23.846754 2.011942
      CHANNELS 3 Xrotation Yrotation Zrotation
      JOINT Neck
      {
        OFFSET -2.196127 3.794168 -6.634246
        CHANNELS 3 Xrotation Yrotation Zrotation
        JOINT Head
        {
          OFFSET -3.034930 3.616294 -10.505753
          CHANNELS 3 Xrotation Yrotation Zrotation
          End Site
          {
            OFFSET -0.910479 1.084888 -3.151726
          }
        }
      }
      JOINT LeftCollar
      {
        OFFSET 3.000000 4.000000 0.000000
        CHANNELS 3 Xrotation Yrotation Zrotation
        JOINT LeftShoulder
        {
          OFFSET 14.869504 1.490289 -6.285599
          CHANNELS 3 Xrotation Yrotation Zrotation
          JOINT LeftArm
          {
            OFFSET 8.240244 -5.869636 -13.075080
            CHANNELS 3 Xrotation Yrotation Zrotation
            JOINT LeftForeArm
            {
              OFFSET -11.957707 3.691441 -10.565373
              CHANNELS 3 Xrotation Yrotation Zrotation
              JOINT LeftHand
              {
                OFFSET -4.140924 1.948982 -1.245566
                CHANNELS 3 Xrotation Yrotation Zrotation
                End Site
                {
                  OFFSET -1.242277 0.584695 -0.373670
                }
              }
            }
          }
        }
      }
      JOINT RightCollar
      {
        OFFSET -3.000000 4.000000 0.000000
        CHANNELS 3 Xrotation Yrotation Zrotation
        JOINT RightShoulder
        {
          OFFSET -14.869504 -1.490289 6.285599
          CHANNELS 3 Xrotation Yrotation Zrotation
          JOINT RightArm
          {
            OFFSET -1.922670 -23.388141 -12.917531
            CHANNELS 3 Xrotation Yrotation Zrotation
            JOINT RightForeArm
            {
              OFFSET 2.003331 14.137387 -21.097828
              CHANNELS 3 Xrotation Yrotation Zrotation
              JOINT RightHand
              {
                OFFSET 3.010116 6.425109 -4.530513
                CHANNELS 3 Xrotation Yrotation Zrotation
                End Site
                {
                  OFFSET 0.903035 1.927533 -1.359154
                }
              }
            }
          }
        }
      }
    }
  }
  JOINT LeftUpLeg
  {
    OFFSET 9.506946 0.418498 -0.262008
    CHANNELS 3 Xrotation Yrotation Zrotation
    JOINT LeftLeg
    {
      OFFSET 11.960976 -40.825369 -9.870072
      CHANNELS 3 Xrotation Yrotation Zrotation
      JOINT LeftFoot
      {
        OFFSET 15.497771 -39.189824 4.980190
        CHANNELS 3 Xrotation Yrotation Zrotation
        End Site
        {
          OFFSET 4.649331 -11.756947 1.494057
        }
      }
    }
  }
  JOINT RightUpLeg
  {
    OFFSET -9.506946 -0.418498 0.262008
    CHANNELS 3 Xrotation Yrotation Zrotation
    JOINT RightLeg
    {
      OFFSET -10.786019 -28.000506 0.300963
      CHANNELS 3 Xrotation Yrotation Zrotation
      JOINT RightFoot
      {
        OFFSET -6.553627 -40.114717 19.325346
        CHANNELS 3 Xrotation Yrotation Zrotation
        End Site
        {
          OFFSET -1.966088 -12.034415 5.797604
        }
      }
    }
  }
}
MOTION
Frames: 12
Frame Time: 0.083333
4.304443 76.052965 -10.548139 -5.333984 -0.352619 -5.685108 0.000000 0.000000 0.000000 6.336555 -6.496122 1.430028 0.554536 -2.434843 0.574567 141.638579 48.021346 4.881581 23.327768 -49.472081 -40.575481 -57.958099 -53.223510 85.926933 54.684205 13.354515 -8.062492 0.000000 0.000000 0.000000 0.000000 0.000000 0.000000 23.327768 -49.472081 -40.575481 -33.841468 -28.968304 172.597706 46.266009 -53.211797 -89.067909 0.000000 0.000000 0.000000 0.000000 0.000000 0.000000 9.710372 -0.760068 22.183831 -4.917245 3.409914 -18.395635 0.000000 0.000000 0.000000 3.379270 -0.092758 20.332211 -26.981144 -6.767043 -32.458309 0.000000 0.000000 0.000000
4.273014 75.792014 -10.408854 -2.296111 0.245445 -8.633763 0.000000 0.000000 0.000000 5.325346 -8.719365 2.673736 -0.287622 -4.080576 1.261225 133.726758 47.041665 10.206004 36.529271 -58.544919 -64.239587 -72.774227 -31.345741 67.302354 51.042244 10.223267 -8.016608 0.000000 0.000000 0.000000 0.000000 0.000000 0.000000 36.529271 -58.544919 -64.239587 -46.778713 -16.757990 139.225141 68.399929 -50.118533 -55.790709 0.000000 0.000000 0.000000 0.000000 0.000000 0.000000 14.209134 0.067307 27.707553 -11.749616 3.751144 -22.905280 0.000000 0.000000 0.000000 4.235623 1.382611 23.672561 -25.974450 -9.674995 -36.731561 0.000000 0.000000 0.000000
4.007742 76.228065 -10.661731 -5.082837 -0.127604 -11.208160 0.000000 0.000000 0.000000 8.762554 -7.790104 4.878711 -1.440202 -5.273992 2.052502 147.174300 46.808015 -1.093405 29.071100 -53.606679 -50.058711 -65.363882 -23.351889 57.443230 55.707001 9.796445 -7.367467 0.000000 0.000000 0.000000 0.000000 0.000000 0.000000 29.071100 -53.606679 -50.058711 -49.933595 6.128010 101.109540 53.379118 -21.306885 -39.965982 0.000000 0.000000 0.000000 0.000000 0.000000 0.000000 19.844635 1.705939 27.854673 -22.977520 3.498472 -24.158479 0.000000 0.000000 0.000000 3.409508 1.545406 23.220470 -23.204139 -9.993817 -36.058010 0.000000 0.000000 0.000000
3.416573 77.063908 -11.176909 -5.159256 -0.113695 -11.188202 0.000000 0.000000 0.000000 8.902332 -8.035162 4.672996 -1.052864 -4.880038 1.876470 158.899165 28.280221 -12.490878 17.486788 -41.936600 -32.184977 -37.965434 -2.688950 30.814001 59.861209 12.762984 -14.221927 0.000000 0.000000 0.000000 0.000000 0.000000 0.000000 17.486788 -41.936600 -32.184977 -13.906997 30.762616 34.004410 -3.900107 3.147732 -10.316233 0.000000 0.000000 0.000000 0.000000 0.000000 0.000000 24.522258 3.986079 21.661573 -22.028373 1.649871 -17.105528 0.000000 0.000000 0.000000 8.831730 3.350844 17.775770 -19.474596 -8.257564 -28.046517 0.000000 0.000000 0.000000
2.398822 77.948460 -11.726883 -11.101957 -1.256387 -9.766156 0.000000 0.000000 0.000000 12.488701 -5.727454 4.223172 -0.387637 -3.908686 1.247475 161.665116 9.555737 -18.096560 6.317433 -24.246698 -15.351324 -26.513214 -6.258659 16.076046 40.387607 11.853673 -12.359829 0.000000 0.000000 0.000000 0.000000 0.000000 0.000000 6.317433 -24.246698 -15.351324 -4.755103 21.366904 13.498054 -1.544708 -1.198075 -3.476280 0.000000 0.000000 0.000000 0.000000 0.000000 0.000000 34.111148 7.056437 12.574703 -19.116560 -0.779255 -8.769640 0.000000 0.000000 0.000000 20.488037 6.944483 8.726450 -14.069485 -4.863946 -14.491663 0.000000 0.000000 0.000000
1.249412 78.607157 -10.524996 -23.940768 -3.574995 -7.155402 0.000000 0.000000 0.000000 20.105396 -1.365494 3.823959 0.247945 -1.519848 0.860164 168.358608 -3.917960 -21.134230 4.860858 -15.747205 -10.178124 -23.748666 -9.367107 9.964799 25.458315 13.429658 -6.107351 0.000000 0.000000 0.000000 0.000000 0.000000 0.000000 4.860858 -15.747205 -10.178124 -5.343958 14.236307 11.444840 -4.624161 0.444592 -1.890711 0.000000 0.000000 0.000000 0.000000 0.000000 0.000000 37.949064 6.752704 8.081989 -19.433442 -1.690772 -4.824341 0.000000 0.000000 0.000000 26.040728 6.754496 4.233393 -12.531204 -1.997019 -7.998769 0.000000 0.000000 0.000000
0.641093 79.138100 -9.079677 -28.603317 -4.089404 -4.813177 0.000000 0.000000 0.000000 23.185842 1.268557 2.769075 0.761021 -0.116473 0.339523 168.752807 -4.018053 -21.724838 4.073648 -16.002038 -10.049898 -25.755185 -2.056116 10.564415 23.664030 13.274650 -2.840234 0.000000 0.000000 0.000000 0.000000 0.000000 0.000000 4.073648 -16.002038 -10.049898 -12.930565 18.530591 15.378004 -9.227536 1.126558 -2.120553 0.000000 0.000000 0.000000 0.000000 0.000000 0.000000 33.630119 5.617879 8.725777 -16.599557 -1.252663 -4.950347 0.000000 0.000000 0.000000 26.239480 5.317254 0.950549 -11.434417 0.771846 0.002772 0.000000 0.000000 0.000000
0.800405 79.410612 -9.033722 -26.333011 -3.676802 -4.605803 0.000000 0.000000 0.000000 21.246547 2.993318 3.627191 0.760888 0.377671 0.077512 173.638869 1.024487 -16.119368 4.485352 -21.379442 -11.114001 -28.284650 2.311997 10.693056 28.660086 12.554987 -2.112106 0.000000 0.000000 0.000000 0.000000 0.000000 0.000000 4.485352 -21.379442 -11.114001 -17.354690 23.404507 12.222352 -11.969184 -4.215875 3.440731 0.000000 0.000000 0.000000 0.000000 0.000000 0.000000 29.592301 5.226220 11.720992 -11.055007 0.399466 -8.499139 0.000000 0.000000 0.000000 25.519509 4.416394 2.419273 -13.322355 1.577962 0.260349 0.000000 0.000000 0.000000
2.281916 79.621791 -10.844548 -22.916484 -3.264492 -5.943825 0.000000 0.000000 0.000000 18.738314 2.359479 4.686414 0.675466 0.109377 0.143157 167.141119 35.246895 -14.479336 7.770492 -29.477109 -15.424109 -43.103738 6.818477 31.833352 38.923593 12.975466 -4.123404 0.000000 0.000000 0.000000 0.000000 0.000000 0.000000 7.770492 -29.477109 -15.424109 -29.976350 46.227857 21.116171 -26.335014 -15.337821 6.142312 0.000000 0.000000 0.000000 0.000000 0.000000 0.000000 26.169449 5.119947 16.062847 -9.743017 1.518072 -13.322153 0.000000 0.000000 0.000000 20.575099 3.112170 8.739399 -21.352968 1.354106 -6.763905 0.000000 0.000000 0.000000
4.264888 79.784055 -12.028487 -16.537915 -2.285785 -8.282674 0.000000 0.000000 0.000000 14.498165 -1.153674 5.580719 0.850611 -1.241940 0.220766 154.303399 53.488982 -1.817004 22.654424 -46.471558 -38.191640 -74.827343 -27.479121 53.276517 54.578694 15.425045 -13.182051 0.000000 0.000000 0.000000 0.000000 0.000000 0.000000 22.654424 -46.471558 -38.191640 -47.568510 -7.435655 129.578133 114.449322 -58.974229 -17.047710 0.000000 0.000000 0.000000 0.000000 0.000000 0.000000 17.022665 3.148420 21.276775 -7.309901 2.185253 -15.756438 0.000000 0.000000 0.000000 8.597872 1.922309 20.698533 -18.292426 -4.868489 -25.695531 0.000000 0.000000 0.000000
5.812298 80.048191 -12.672665 -7.908777 -0.689514 -11.348010 0.000000 0.000000 0.000000 9.417821 -6.349446 6.490374 0.919343 -3.558230 0.162940 145.458070 56.586373 9.108720 55.188861 -62.159747 -99.253113 -27.258141 47.517917 148.862147 67.995071 17.067536 -32.729694 0.000000 0.000000 0.000000 0.000000 0.000000 0.000000 55.188861 -62.159747 -99.253113 67.942057 0.792963 -41.222928 63.983453 -63.793023 -74.641426 0.000000 0.000000 0.000000 0.000000 0.000000 0.000000 12.883281 1.860935 26.010366 -3.551719 2.851871 -19.885315 0.000000 0.000000 0.000000 2.956407 2.099118 24.840434 -13.973860 -11.422981 -34.529610 0.000000 0.000000 0.000000
6.386377 80.766788 -13.055959 -5.449024 -0.095715 -14.427232 0.000000 0.000000 0.000000 8.140935 -7.359453 9.159298 1.058567 -4.718562 -0.124605 143.190017 50.736777 7.802290 83.030979 -68.035252 -158.537569 73.250819 24.826170 -91.024617 69.255255 10.679223 -57.959290 0.000000 0.000000 0.000000 0.000000 0.000000 0.000000 83.030979 -68.035252 -158.537569 76.629421 -4.605644 -49.972499 103.978139 -62.497077 -29.330560 0.000000 0.000000 0.000000 0.000000 0.000000 0.000000 13.071426 1.848143 28.863936 -2.952194 3.236245 -22.642201 0.000000 0.000000 0.000000 3.189558 1.939269 23.786425 -14.233785 -12.979043 -33.664653 0.000000 0.000000 0.000000
